HIERARCHY
ROOT mixamorig:Hips
{
	OFFSET 0.000000 103.991501 0.000000
	CHANNELS 6 Xposition Yposition Zposition Xrotation Yrotation Zrotation
	JOINT mixamorig:Spine
	{
		OFFSET 0.000000 10.181602 0.131500
		CHANNELS 3 Xrotation Yrotation Zrotation
		JOINT mixamorig:Spine1
		{
			OFFSET 0.000000 10.083504 -1.000800
			CHANNELS 3 Xrotation Yrotation Zrotation
			JOINT mixamorig:Spine2
			{
				OFFSET 0.000000 9.100006 -1.373400
				CHANNELS 3 Xrotation Yrotation Zrotation
				JOINT mixamorig:Neck
				{
					OFFSET 0.000000 16.671707 -2.516200
					CHANNELS 3 Xrotation Yrotation Zrotation
					JOINT mixamorig:Head
					{
						OFFSET 0.000000 9.617905 1.685000
						CHANNELS 3 Xrotation Yrotation Zrotation
						JOINT mixamorig:HeadTop_End
						{
							OFFSET 0.000000 17.815201 2.585000
							CHANNELS 3 Xrotation Yrotation Zrotation
							End Site
							{
								OFFSET 0.000000 13.794495 0.000000
							}
						}
						JOINT mixamorig:LeftEye
						{
							OFFSET 3.067600 6.409500 9.283600
							CHANNELS 3 Xrotation Yrotation Zrotation
							End Site
							{
								OFFSET 0.000000 13.794495 0.000000
							}
						}
						JOINT mixamorig:RightEye
						{
							OFFSET -3.067600 6.409500 9.283500
							CHANNELS 3 Xrotation Yrotation Zrotation
							End Site
							{
								OFFSET 0.000000 13.794495 0.000000
							}
						}
					}
				}
				JOINT mixamorig:LeftShoulder
				{
					OFFSET 4.570400 10.945999 -2.628000
					CHANNELS 3 Xrotation Yrotation Zrotation
					JOINT mixamorig:LeftArm
					{
						OFFSET 10.592400 -0.524597 -2.232100
						CHANNELS 3 Xrotation Yrotation Zrotation
						JOINT mixamorig:LeftForeArm
						{
							OFFSET 27.841499 0.000000 0.000000
							CHANNELS 3 Xrotation Yrotation Zrotation
							JOINT mixamorig:LeftHand
							{
								OFFSET 28.328800 0.000000 0.000000
								CHANNELS 3 Xrotation Yrotation Zrotation
								JOINT mixamorig:LeftHandThumb1
								{
									OFFSET 2.466103 -1.576218 2.681689
									CHANNELS 3 Xrotation Yrotation Zrotation
									JOINT mixamorig:LeftHandThumb2
									{
										OFFSET 3.229782 -1.864716 1.864716
										CHANNELS 3 Xrotation Yrotation Zrotation
										JOINT mixamorig:LeftHandThumb3
										{
											OFFSET 2.652611 -1.531494 1.531488
											CHANNELS 3 Xrotation Yrotation Zrotation
											JOINT mixamorig:LeftHandThumb4
											{
												OFFSET 1.954605 -1.128494 1.128493
												CHANNELS 3 Xrotation Yrotation Zrotation
												End Site
												{
													OFFSET -0.000404 2.523392 0.000683
												}
											}
										}
									}
								}
								JOINT mixamorig:LeftHandIndex1
								{
									OFFSET 9.109299 -0.518112 2.259867
									CHANNELS 3 Xrotation Yrotation Zrotation
									JOINT mixamorig:LeftHandIndex2
									{
										OFFSET 3.676399 0.000000 0.000000
										CHANNELS 3 Xrotation Yrotation Zrotation
										JOINT mixamorig:LeftHandIndex3
										{
											OFFSET 2.883102 0.000000 0.000000
											CHANNELS 3 Xrotation Yrotation Zrotation
											JOINT mixamorig:LeftHandIndex4
											{
												OFFSET 2.392700 0.000000 0.000000
												CHANNELS 3 Xrotation Yrotation Zrotation
												End Site
												{
													OFFSET 0.000000 2.392700 0.001080
												}
											}
										}
									}
								}
								JOINT mixamorig:LeftHandMiddle1
								{
									OFFSET 9.533401 0.000000 0.000000
									CHANNELS 3 Xrotation Yrotation Zrotation
									JOINT mixamorig:LeftHandMiddle2
									{
										OFFSET 3.698196 0.000000 0.000000
										CHANNELS 3 Xrotation Yrotation Zrotation
										JOINT mixamorig:LeftHandMiddle3
										{
											OFFSET 2.950897 0.000000 0.000000
											CHANNELS 3 Xrotation Yrotation Zrotation
											JOINT mixamorig:LeftHandMiddle4
											{
												OFFSET 2.833900 0.000000 0.000000
												CHANNELS 3 Xrotation Yrotation Zrotation
												End Site
												{
													OFFSET 0.000000 2.833893 0.001278
												}
											}
										}
									}
								}
								JOINT mixamorig:LeftHandRing1
								{
									OFFSET 9.104500 -0.043060 -1.865119
									CHANNELS 3 Xrotation Yrotation Zrotation
									JOINT mixamorig:LeftHandRing2
									{
										OFFSET 3.153999 0.000000 0.000000
										CHANNELS 3 Xrotation Yrotation Zrotation
										JOINT mixamorig:LeftHandRing3
										{
											OFFSET 2.937698 0.000000 0.000000
											CHANNELS 3 Xrotation Yrotation Zrotation
											JOINT mixamorig:LeftHandRing4
											{
												OFFSET 2.647499 0.000000 0.000000
												CHANNELS 3 Xrotation Yrotation Zrotation
												End Site
												{
													OFFSET 0.000000 2.647507 0.001195
												}
											}
										}
									}
								}
								JOINT mixamorig:LeftHandPinky1
								{
									OFFSET 8.077797 -0.486984 -3.806321
									CHANNELS 3 Xrotation Yrotation Zrotation
									JOINT mixamorig:LeftHandPinky2
									{
										OFFSET 3.599998 0.000000 0.000000
										CHANNELS 3 Xrotation Yrotation Zrotation
										JOINT mixamorig:LeftHandPinky3
										{
											OFFSET 2.114197 0.000000 0.000000
											CHANNELS 3 Xrotation Yrotation Zrotation
											JOINT mixamorig:LeftHandPinky4
											{
												OFFSET 1.975700 0.000000 0.000000
												CHANNELS 3 Xrotation Yrotation Zrotation
												End Site
												{
													OFFSET 0.000000 1.975693 0.000892
												}
											}
										}
									}
								}
							}
						}
					}
				}
				JOINT mixamorig:RightShoulder
				{
					OFFSET -4.570000 10.946198 -2.628000
					CHANNELS 3 Xrotation Yrotation Zrotation
					JOINT mixamorig:RightArm
					{
						OFFSET -10.592800 -0.524796 -2.232100
						CHANNELS 3 Xrotation Yrotation Zrotation
						JOINT mixamorig:RightForeArm
						{
							OFFSET -27.841499 0.000000 0.000000
							CHANNELS 3 Xrotation Yrotation Zrotation
							JOINT mixamorig:RightHand
							{
								OFFSET -28.328800 0.000000 0.000000
								CHANNELS 3 Xrotation Yrotation Zrotation
								JOINT mixamorig:RightHandPinky1
								{
									OFFSET -8.076698 -0.486725 -3.806227
									CHANNELS 3 Xrotation Yrotation Zrotation
									JOINT mixamorig:RightHandPinky2
									{
										OFFSET -3.599998 0.000000 0.000000
										CHANNELS 3 Xrotation Yrotation Zrotation
										JOINT mixamorig:RightHandPinky3
										{
											OFFSET -2.114197 0.000000 0.000000
											CHANNELS 3 Xrotation Yrotation Zrotation
											JOINT mixamorig:RightHandPinky4
											{
												OFFSET -1.975700 0.000000 0.000000
												CHANNELS 3 Xrotation Yrotation Zrotation
												End Site
												{
													OFFSET 0.000000 1.975693 0.000919
												}
											}
										}
									}
								}
								JOINT mixamorig:RightHandRing1
								{
									OFFSET -9.103600 -0.043030 -1.865120
									CHANNELS 3 Xrotation Yrotation Zrotation
									JOINT mixamorig:RightHandRing2
									{
										OFFSET -3.153999 0.000000 0.000000
										CHANNELS 3 Xrotation Yrotation Zrotation
										JOINT mixamorig:RightHandRing3
										{
											OFFSET -2.937698 0.000000 0.000000
											CHANNELS 3 Xrotation Yrotation Zrotation
											JOINT mixamorig:RightHandRing4
											{
												OFFSET -2.647499 0.000000 0.000000
												CHANNELS 3 Xrotation Yrotation Zrotation
												End Site
												{
													OFFSET 0.000000 2.647507 0.001231
												}
											}
										}
									}
								}
								JOINT mixamorig:RightHandMiddle1
								{
									OFFSET -9.532501 0.000000 0.000000
									CHANNELS 3 Xrotation Yrotation Zrotation
									JOINT mixamorig:RightHandMiddle2
									{
										OFFSET -3.698196 0.000000 0.000000
										CHANNELS 3 Xrotation Yrotation Zrotation
										JOINT mixamorig:RightHandMiddle3
										{
											OFFSET -2.950897 0.000000 0.000000
											CHANNELS 3 Xrotation Yrotation Zrotation
											JOINT mixamorig:RightHandMiddle4
											{
												OFFSET -2.833900 0.000000 0.000000
												CHANNELS 3 Xrotation Yrotation Zrotation
												End Site
												{
													OFFSET 0.000000 2.833893 0.001318
												}
											}
										}
									}
								}
								JOINT mixamorig:RightHandIndex1
								{
									OFFSET -9.108299 -0.517853 2.259859
									CHANNELS 3 Xrotation Yrotation Zrotation
									JOINT mixamorig:RightHandIndex2
									{
										OFFSET -3.676399 0.000000 0.000000
										CHANNELS 3 Xrotation Yrotation Zrotation
										JOINT mixamorig:RightHandIndex3
										{
											OFFSET -2.883102 0.000000 0.000000
											CHANNELS 3 Xrotation Yrotation Zrotation
											JOINT mixamorig:RightHandIndex4
											{
												OFFSET -2.392700 0.000000 0.000000
												CHANNELS 3 Xrotation Yrotation Zrotation
												End Site
												{
													OFFSET 0.000000 2.392700 0.001113
												}
											}
										}
									}
								}
								JOINT mixamorig:RightHandThumb1
								{
									OFFSET -2.464798 -1.573944 2.681868
									CHANNELS 3 Xrotation Yrotation Zrotation
									JOINT mixamorig:RightHandThumb2
									{
										OFFSET -3.229782 -1.864716 1.864716
										CHANNELS 3 Xrotation Yrotation Zrotation
										JOINT mixamorig:RightHandThumb3
										{
											OFFSET -2.652542 -1.531448 1.531448
											CHANNELS 3 Xrotation Yrotation Zrotation
											JOINT mixamorig:RightHandThumb4
											{
												OFFSET -1.954605 -1.128494 1.128493
												CHANNELS 3 Xrotation Yrotation Zrotation
												End Site
												{
													OFFSET 0.000412 2.523392 0.000704
												}
											}
										}
									}
								}
							}
						}
					}
				}
			}
		}
	}
	JOINT mixamorig:LeftUpLeg
	{
		OFFSET 8.207800 -6.751701 -1.599600
		CHANNELS 3 Xrotation Yrotation Zrotation
		JOINT mixamorig:LeftLeg
		{
			OFFSET 0.000000 -44.370499 0.284600
			CHANNELS 3 Xrotation Yrotation Zrotation
			JOINT mixamorig:LeftFoot
			{
				OFFSET 0.000000 -44.427898 -2.982200
				CHANNELS 3 Xrotation Yrotation Zrotation
				JOINT mixamorig:LeftToeBase
				{
					OFFSET 0.000000 -8.728700 10.710600
					CHANNELS 3 Xrotation Yrotation Zrotation
					JOINT mixamorig:LeftToe_End
					{
						OFFSET 0.000000 -0.000700 9.278099
						CHANNELS 3 Xrotation Yrotation Zrotation
						End Site
						{
							OFFSET 0.000000 9.278100 0.000000
						}
					}
				}
			}
		}
	}
	JOINT mixamorig:RightUpLeg
	{
		OFFSET -8.207800 -6.751701 -1.599600
		CHANNELS 3 Xrotation Yrotation Zrotation
		JOINT mixamorig:RightLeg
		{
			OFFSET 0.000000 -44.370499 0.286200
			CHANNELS 3 Xrotation Yrotation Zrotation
			JOINT mixamorig:RightFoot
			{
				OFFSET 0.000000 -44.427700 -2.983800
				CHANNELS 3 Xrotation Yrotation Zrotation
				JOINT mixamorig:RightToeBase
				{
					OFFSET 0.000000 -8.728700 10.710600
					CHANNELS 3 Xrotation Yrotation Zrotation
					JOINT mixamorig:RightToe_End
					{
						OFFSET 0.000000 -0.000700 9.278100
						CHANNELS 3 Xrotation Yrotation Zrotation
						End Site
						{
							OFFSET 0.000000 9.278100 0.000000
						}
					}
				}
			}
		}
	}
}
MOTION
Frames: 6
Frame Time: 0.033333
0.143602 103.399239 1.422749 -3.753040 -5.218338 -3.762275 3.296832 1.542904 2.735006 1.151889 0.339456 1.552798 1.126015 0.361543 1.555886 5.626314 -0.078964 0.454685 -7.563367 1.375302 -0.079674 -0.000000 -0.000000 -0.000000 -0.000000 -0.000000 -0.000000 -0.000000 -0.000000 -0.000000 1.047061 -17.442090 -12.324869 3.916296 -19.989250 -69.765253 -0.000001 -1.459474 -0.000018 -33.230390 -1.364781 -6.186597 -0.663003 2.160314 4.832506 11.853577 25.421600 17.058304 -13.808285 3.535459 9.037048 0.000001 0.000001 0.000002 0.019311 -0.967280 -7.593325 0.267872 1.752900 -17.375786 0.057682 0.820959 -8.038077 -0.000000 0.000000 0.000000 -0.079808 2.653350 -15.697981 0.268783 1.755804 -17.405514 0.300529 1.853980 -18.413336 -0.000000 0.000000 0.000000 0.136903 3.641771 -21.133509 0.387272 2.096482 -20.929604 0.283608 1.802386 -17.882982 -0.000000 -0.000000 0.000004 0.927723 5.555917 -27.128038 0.268795 1.755840 -17.405878 0.241909 1.667701 -16.505886 -0.000000 -0.000001 -0.000006 1.202402 15.343308 14.706152 13.159131 27.555157 58.785184 -0.000003 6.693740 0.000006 -20.179090 -0.514088 6.782804 0.753749 -4.882831 26.474196 0.214462 -1.398410 17.437756 0.192970 -1.328049 16.533987 -0.000001 -0.000000 -0.000002 0.030603 -3.075751 20.451048 0.308528 -1.668501 20.951399 0.225905 -1.434296 17.900406 0.000000 0.000001 0.000001 -0.136225 -2.205107 14.998873 0.214141 -1.397375 17.424414 0.239496 -1.475695 18.435357 -0.000001 0.000000 -0.000002 0.044578 1.262987 6.823950 0.213477 -1.395253 17.397030 0.045912 -0.653047 8.043164 -0.000001 -0.000000 -0.000000 -1.665248 -0.174481 -4.219046 12.712254 -29.825319 -16.127268 -15.549407 -3.559438 -12.707141 0.000003 -0.000000 -0.000001 -10.785232 14.738450 10.336653 12.159853 2.032390 4.171565 1.275799 0.514775 -7.111297 -4.928523 0.000007 -0.000000 -0.000000 0.000000 0.000000 0.643256 -10.390821 3.513820 7.322165 -9.765534 -3.277829 -3.641853 -1.648497 3.194657 -7.245083 0.000007 0.000000 -0.000000 0.000002 0.000000 
-1.612479 103.329102 1.155936 -3.770416 -7.593434 -3.989264 3.103000 1.071869 2.673908 1.089059 0.194403 1.621144 1.064878 0.217278 1.624274 5.540980 -0.510453 0.352968 -7.386069 0.615934 -0.420491 -0.000000 -0.000000 -0.000000 -0.000000 -0.000000 -0.000000 -0.000000 -0.000000 -0.000000 1.086148 -17.170874 -12.336465 3.606168 -19.099982 -69.384060 -0.000002 -1.269805 -0.000010 -31.895337 -1.331770 -6.132446 -0.663004 2.160315 4.832505 12.032785 25.191254 17.003563 -13.812345 3.518679 9.032858 -0.000001 -0.000000 0.000005 -0.009935 -0.934734 -7.990612 0.268766 1.755749 -17.404949 0.058104 0.823918 -8.067224 -0.000000 -0.000001 -0.000001 -0.078840 2.672593 -15.881319 0.269142 1.756950 -17.417215 0.300908 1.855126 -18.425127 0.000000 -0.000000 -0.000000 0.110710 3.585370 -21.379670 0.387267 2.096477 -20.929588 0.283604 1.802388 -17.882965 -0.000000 0.000001 -0.000001 0.839082 5.450124 -27.335172 0.267061 1.750307 -17.349218 0.240149 1.661757 -16.445279 0.000000 -0.000001 -0.000001 1.219354 15.149916 14.845747 13.163461 27.308882 59.188370 -0.000004 7.532250 -0.000000 -19.312474 -0.389540 6.845894 0.778432 -4.937085 26.273489 0.214918 -1.399838 17.456005 0.193393 -1.329473 16.552321 -0.000000 -0.000001 0.000003 0.015790 -3.012956 19.957999 0.308531 -1.668505 20.951409 0.225904 -1.434301 17.900408 0.000001 -0.000002 0.000001 -0.143826 -2.144403 14.652839 0.214141 -1.397386 17.424381 0.239487 -1.475673 18.435384 0.000000 0.000002 -0.000002 -0.050444 1.543949 6.175869 0.213476 -1.395253 17.396984 0.045910 -0.653040 8.043178 0.000000 -0.000001 -0.000000 -1.665252 -0.174481 -4.219047 12.096026 -29.481139 -16.450939 -15.553833 -3.787040 -12.744314 -0.000002 -0.000001 -0.000001 -13.685551 16.407443 13.517773 16.275497 -0.835416 3.144617 3.800473 1.983989 -7.756631 -8.371718 -0.000002 0.000001 0.000000 0.000000 -0.000000 0.285410 -10.377126 5.014675 7.806342 -9.318661 -4.044828 -4.090138 0.069999 2.476103 -7.545061 -0.000007 0.000001 -0.000000 -0.000001 0.000000 
-3.636890 103.188133 0.875510 -3.799163 -10.119056 -4.049639 2.957496 0.936098 2.402812 1.057159 0.142912 1.690765 1.034773 0.166562 1.694026 5.442945 -0.946503 0.250549 -7.212401 -0.147374 -0.763466 -0.000000 -0.000000 0.000000 -0.000000 -0.000000 0.000000 -0.000000 -0.000000 0.000000 1.202789 -16.545589 -12.308688 2.835635 -17.836458 -69.136309 0.000000 -1.494768 -0.000007 -30.862661 -1.694670 -6.043874 -0.663002 2.160315 4.832506 12.228006 24.986743 16.907799 -13.817936 3.495518 9.027048 -0.000002 -0.000000 0.000004 -0.069773 -0.910256 -8.546355 0.269381 1.757702 -17.424924 0.058388 0.825943 -8.087186 0.000000 -0.000001 -0.000001 -0.078364 2.700361 -16.187576 0.269945 1.759505 -17.443381 0.301759 1.857670 -18.451351 -0.000000 -0.000000 -0.000001 0.077017 3.518651 -21.742529 0.387269 2.096480 -20.929583 0.283608 1.802387 -17.882965 -0.000001 0.000000 0.000001 0.712433 5.301796 -27.613253 0.266994 1.750084 -17.346978 0.239920 1.660982 -16.437446 -0.000001 -0.000001 -0.000001 1.294911 14.674129 15.101342 12.999608 27.066699 59.433157 -0.000001 7.997133 -0.000006 -18.116583 -0.325574 6.942664 0.764018 -4.912924 26.254588 0.214983 -1.400065 17.458947 0.193461 -1.329703 16.555255 -0.000001 -0.000001 -0.000001 0.015701 -3.012001 19.942709 0.308526 -1.668501 20.951414 0.225900 -1.434298 17.900410 0.000000 -0.000001 -0.000000 -0.140605 -2.159492 14.681809 0.214143 -1.397383 17.424381 0.239487 -1.475680 18.435376 -0.000000 0.000001 0.000001 -0.049872 1.536890 6.211340 0.213476 -1.395253 17.396994 0.045912 -0.653042 8.043172 0.000002 -0.000001 -0.000001 -1.665252 -0.174481 -4.219046 12.112908 -29.394020 -16.451487 -15.553669 -3.788285 -12.740130 0.000001 0.000002 0.000002 -15.765955 17.120470 16.341969 18.717232 -2.876937 2.526584 7.633410 1.260527 -9.304332 -12.697972 -0.000001 -0.000002 0.000001 -0.000001 0.000000 -0.071325 -10.449124 6.301156 8.737347 -8.127415 -4.400306 -4.825583 1.253544 1.368601 -7.788786 0.000004 -0.000000 -0.000000 0.000001 -0.000000 
-5.661302 103.047165 0.595085 -3.830894 -12.644647 -4.111851 2.811358 0.801016 2.131382 1.025322 0.091385 1.760357 1.004730 0.115807 1.763751 5.344117 -1.382375 0.147369 -7.043285 -0.911705 -1.104167 -0.000000 -0.000000 -0.000000 -0.000000 -0.000000 -0.000000 -0.000000 -0.000000 -0.000000 1.318744 -15.920266 -12.282330 2.064646 -16.576210 -68.872513 0.000004 -1.719730 -0.000005 -29.829215 -2.055915 -5.948754 -0.663002 2.160315 4.832505 12.422528 24.781940 16.812963 -13.823521 3.472361 9.021234 0.000000 0.000001 0.000005 -0.129368 -0.885198 -9.102071 0.269994 1.759653 -17.444899 0.058674 0.827968 -8.107152 0.000001 -0.000001 -0.000000 -0.077741 2.728127 -16.493840 0.270750 1.762060 -17.469542 0.302610 1.860217 -18.477559 0.000000 -0.000001 -0.000001 0.042902 3.452147 -22.105400 0.387270 2.096482 -20.929583 0.283612 1.802386 -17.882970 0.000000 -0.000000 -0.000000 0.585093 5.154082 -27.891586 0.266920 1.749860 -17.344741 0.239692 1.660208 -16.429614 0.000000 0.000001 -0.000001 1.372495 14.198672 15.357037 12.837256 26.823884 59.676626 0.000005 8.462017 -0.000012 -16.920807 -0.259602 7.038078 0.749611 -4.888759 26.235692 0.215058 -1.400294 17.461877 0.193532 -1.329937 16.558171 0.000001 0.000000 0.000001 0.015616 -3.011044 19.927427 0.308528 -1.668500 20.951414 0.225899 -1.434298 17.900406 -0.000001 0.000001 0.000003 -0.137378 -2.174580 14.710781 0.214144 -1.397380 17.424381 0.239489 -1.475682 18.435360 -0.000002 -0.000002 0.000001 -0.049291 1.529829 6.246808 0.213478 -1.395253 17.397002 0.045911 -0.653042 8.043167 0.000002 -0.000000 0.000000 -1.665252 -0.174481 -4.219047 12.129770 -29.306890 -16.452061 -15.553514 -3.789525 -12.735945 0.000001 -0.000003 -0.000002 -17.888267 17.733845 19.201740 21.142719 -4.942842 1.994872 11.444668 0.435541 -10.799911 -17.024223 0.000001 -0.000005 -0.000000 0.000000 -0.000000 -0.426413 -10.528982 7.587471 9.673226 -6.942044 -4.774259 -5.538492 2.450993 0.275649 -8.032509 0.000015 -0.000002 -0.000000 0.000001 -0.000000 
-7.747083 102.824692 0.402834 -3.876011 -15.319479 -4.153902 2.792829 1.137523 1.939058 1.042110 0.174562 1.854494 1.023483 0.200251 1.858237 5.259489 -1.870687 0.031379 -6.849129 -1.777249 -1.478927 -0.000000 -0.000002 -0.000000 -0.000000 -0.000002 -0.000000 -0.000000 -0.000002 -0.000000 1.520845 -14.884104 -12.221841 0.739462 -14.980352 -68.736831 -0.000010 -2.340901 0.000003 -29.034157 -2.841077 -5.827168 -0.663002 2.160314 4.832506 12.515346 24.624500 16.749541 -13.827917 3.454247 9.016709 -0.000000 0.000000 0.000002 -0.192010 -0.877692 -9.571550 0.270328 1.760721 -17.455858 0.058834 0.829074 -8.118077 0.000001 -0.000001 0.000000 -0.081239 2.741502 -16.797127 0.271551 1.764609 -17.495673 0.303466 1.862771 -18.503853 0.000000 -0.000001 -0.000004 0.013383 3.398313 -22.427211 0.387270 2.096480 -20.929571 0.283606 1.802389 -17.882957 -0.000001 -0.000000 0.000002 0.489957 5.047371 -28.129424 0.268102 1.753624 -17.383231 0.240690 1.663581 -16.463937 0.000001 0.000001 0.000003 1.585056 13.381833 15.363952 12.193037 26.945784 59.689891 -0.000007 8.165021 -0.000003 -15.357714 -0.366192 6.850603 0.708233 -4.824778 26.415938 0.215020 -1.400161 17.460257 0.193492 -1.329804 16.556483 0.000000 0.000001 0.000003 0.033891 -3.080706 20.363516 0.308653 -1.668818 20.955741 0.226013 -1.434635 17.904624 0.000001 0.000000 -0.000001 -0.124489 -2.257103 15.091011 0.214142 -1.397375 17.424405 0.239490 -1.475687 18.435377 -0.000000 -0.000001 -0.000002 0.031988 1.275099 6.884204 0.213475 -1.395255 17.397013 0.045913 -0.653039 8.043171 0.000001 0.000000 0.000001 -1.665250 -0.174480 -4.219047 12.705269 -29.620253 -16.193740 -15.530663 -3.538459 -12.715580 0.000000 -0.000001 0.000002 -18.590095 16.730147 20.687620 22.373885 -6.587093 2.223587 13.034550 -3.310967 -13.350123 -17.917832 -0.000003 -0.000000 0.000000 0.000000 -0.000000 -0.591512 -10.591638 8.788459 10.769127 -5.203921 -4.971007 -6.381344 3.228358 -0.984996 -8.215418 0.000002 -0.000002 -0.000001 0.000002 0.000000 
-9.571987 102.507988 0.328134 -3.932825 -18.093352 -4.360033 2.894028 1.759311 2.045129 1.091257 0.342345 1.976557 1.074649 0.369927 1.980864 5.217126 -2.453409 -0.107376 -6.606273 -2.839526 -1.902021 -0.000000 -0.000002 0.000000 -0.000000 -0.000002 0.000000 -0.000000 -0.000002 0.000000 1.767159 -13.629591 -12.150975 -0.834747 -13.351066 -68.673399 -0.000003 -3.080091 -0.000005 -28.220229 -3.730878 -5.777709 -0.663001 2.160315 4.832506 12.468839 24.495872 16.765077 -13.829278 3.448552 9.015253 -0.000001 0.000000 0.000001 -0.227844 -0.884714 -9.772206 0.270577 1.761530 -17.464095 0.058953 0.829911 -8.126294 0.000001 0.000001 0.000001 -0.089054 2.730125 -16.971618 0.271835 1.765503 -17.504834 0.303770 1.863683 -18.513298 0.000002 -0.000001 -0.000003 -0.001601 3.371019 -22.577189 0.387269 2.096477 -20.929588 0.283607 1.802395 -17.882955 -0.000001 0.000000 0.000003 0.471418 5.029130 -28.242858 0.269156 1.756990 -17.417686 0.241664 1.666881 -16.497480 -0.000000 -0.000001 0.000001 1.859744 12.388673 15.391756 11.333768 27.473780 59.061097 -0.000003 7.395276 0.000014 -13.683997 -0.641738 6.372840 0.676706 -4.776952 26.653560 0.214946 -1.399941 17.457362 0.193423 -1.329577 16.553587 0.000001 -0.000000 -0.000000 0.058785 -3.168703 20.878148 0.308980 -1.669675 20.966878 0.226285 -1.435478 17.915571 -0.000001 0.000001 0.000003 -0.110316 -2.345171 15.523939 0.214150 -1.397381 17.424397 0.239488 -1.475683 18.435370 0.000001 0.000001 0.000003 0.125653 0.999498 7.585553 0.213478 -1.395256 17.397006 0.045912 -0.653039 8.043170 0.000002 -0.000000 -0.000001 -1.665251 -0.174481 -4.219047 13.343134 -30.121018 -15.917708 -15.489006 -3.220294 -12.710135 0.000001 -0.000002 -0.000001 -18.687632 14.500222 20.978608 23.944449 -7.603628 3.216608 11.374743 -8.408934 -17.272729 -15.836115 -0.050617 2.231171 -0.000000 -0.000001 0.000000 -0.822189 -10.559079 9.991675 12.230129 -3.641858 -5.300278 -7.405304 4.126667 -1.994711 -8.360333 -0.000006 -0.000000 -0.000001 0.000001 0.000000 
